<?xml version="1.0" encoding="UTF-8"?>
<svg xmlns="http://www.w3.org/2000/svg" xmlns:xlink="http://www.w3.org/1999/xlink" width="280pt" height="448pt" viewBox="0 0 280 448" version="1.1">
<g id="surface1">
<path style=" stroke:none;fill-rule:nonzero;fill:rgb(0%,0%,0%);fill-opacity:1;" d="M 238 0 L 42 0 C 18.8125 0 0 18.8125 0 42 L 0 406 C 0 429.1875 18.8125 448 42 448 L 238 448 C 261.1875 448 280 429.1875 280 406 L 280 42 C 280 18.8125 261.1875 0 238 0 Z M 140 420 C 124.511719 420 112 407.488281 112 392 C 112 376.511719 124.511719 364 140 364 C 155.488281 364 168 376.511719 168 392 C 168 407.488281 155.488281 420 140 420 Z M 238 325.5 C 238 331.273438 233.273438 336 227.5 336 L 52.5 336 C 46.726562 336 42 331.273438 42 325.5 L 42 52.5 C 42 46.726562 46.726562 42 52.5 42 L 227.5 42 C 233.273438 42 238 46.726562 238 52.5 Z M 238 325.5 "/>
</g>
</svg>
